# xmcd CD database file
#
# Track frame offsets:
#	150
#	4448
#	28240
#	48903
#	80545
#	105123
#	126075
#	129463
#	150483
#	153265
#	178000
#	190550
#
# Disc length: 2804 seconds
#
# Revision: 1
# Processed by: cddbd v1.5.1PL0 Copyright (c) Steve Scherf et al.
# Submitted via: CDex 1.51
#
DISCID=890af20c
DTITLE=高浜裕輔 - Prototyope
DYEAR=1991
DGENRE=Heavy Metal
TTITLE0=Customary (Instrumental)
TTITLE1=Amour
TTITLE2=Return To The Sky
TTITLE3=Inside Of Mad
TTITLE4=I'm Sincere
TTITLE5=Kiss My Eyes
TTITLE6=Prototype (Instrumental)
TTITLE7=Affair
TTITLE8=Nightmare (Instrumental)
TTITLE9=Fire Away
TTITLE10=Precious
TTITLE11=Stray Dog (Instrumental)
EXTD=YEAR: 1991
EXTT0=
EXTT1=
EXTT2=
EXTT3=
EXTT4=
EXTT5=
EXTT6=
EXTT7=
EXTT8=
EXTT9=
EXTT10=
EXTT11=
PLAYORDER=
